<?xml version="1.0"?>
<svg xmlns="http://www.w3.org/2000/svg" id="Icons" viewBox="0 0 74 74" width="512" height="512"><path d="M69.764,40.9H4.236A2.239,2.239,0,0,1,2,38.667V33.1a2.239,2.239,0,0,1,2.236-2.236H69.764A2.239,2.239,0,0,1,72,33.1v5.563A2.239,2.239,0,0,1,69.764,40.9ZM4.236,32.868A.237.237,0,0,0,4,33.1v5.563a.237.237,0,0,0,.236.236H69.764A.237.237,0,0,0,70,38.667V33.1a.237.237,0,0,0-.236-.236Z"/><path d="M58.313,68.1H15.687a4.977,4.977,0,0,1-4.937-4.215L6.958,40.061A1,1,0,0,1,7.945,38.9H66.055a1,1,0,0,1,.987,1.157L63.251,63.89A4.977,4.977,0,0,1,58.313,68.1ZM9.117,40.9l3.606,22.671A2.987,2.987,0,0,0,15.687,66.1H58.313a2.987,2.987,0,0,0,2.963-2.528L64.883,40.9Z"/><path d="M49.364,60.892a1.038,1.038,0,0,1-.145-.01,1,1,0,0,1-.846-1.133l1.854-12.775a1,1,0,1,1,1.979.287L50.353,60.035A1,1,0,0,1,49.364,60.892Z"/><path d="M37,60.892a1,1,0,0,1-1-1V47.116a1,1,0,0,1,2,0V59.892A1,1,0,0,1,37,60.892Z"/><path d="M24.636,60.892a1,1,0,0,1-.988-.856L21.793,47.26a1,1,0,1,1,1.979-.287l1.854,12.775a1,1,0,0,1-.846,1.133A1.038,1.038,0,0,1,24.636,60.892Z"/><path d="M61.567,32.868a1,1,0,0,1-.91-.583L50.21,9.511a2.769,2.769,0,0,0-3.67-1.362,2.8,2.8,0,0,0-1.616,2.528,2.716,2.716,0,0,0,.254,1.151L54.192,31.45a1,1,0,0,1-1.818.835L43.36,12.664a4.717,4.717,0,0,1-.437-1.988A4.808,4.808,0,0,1,45.7,6.332a4.768,4.768,0,0,1,6.325,2.346L62.476,31.451a1,1,0,0,1-.908,1.417Z"/><path d="M12.433,32.868a1,1,0,0,1-.908-1.417L21.972,8.677a4.768,4.768,0,0,1,6.32-2.347,4.809,4.809,0,0,1,2.784,4.346,4.719,4.719,0,0,1-.437,1.99L21.626,32.285a1,1,0,0,1-1.818-.835l9.014-19.621a2.717,2.717,0,0,0,.255-1.153,2.8,2.8,0,0,0-1.621-2.53A2.769,2.769,0,0,0,23.79,9.51L13.343,32.285A1,1,0,0,1,12.433,32.868Z"/></svg>
